<svg width="94" height="15" viewBox="0 0 94 15" fill="none" xmlns="http://www.w3.org/2000/svg">
<path d="M0.00159383 14.5605V0.160546H4.57759C5.68159 0.160546 6.65759 0.752546 7.53759 1.40855C8.33759 2.00055 9.20159 2.65655 9.20159 3.63255V4.41655C9.20159 5.39255 8.33759 6.04855 7.53759 6.64055C6.99359 7.05655 6.41759 7.42455 5.79359 7.66455L9.64959 14.5605H7.77759L4.17759 7.88855H1.58559V14.5605H0.00159383ZM1.58559 1.60055V6.44855H4.57759C5.28159 6.44855 5.92159 6.11255 6.51359 5.71255C7.02559 5.37655 7.61759 4.99255 7.61759 4.41655V3.63255C7.61759 3.05655 7.02559 2.67255 6.51359 2.33655C5.92159 1.93655 5.28159 1.60055 4.57759 1.60055H1.58559ZM9.97009 14.5605L15.1701 0.160546H16.7701L21.9541 14.5605H20.2741L18.6581 10.0965H13.1381L11.5221 14.5605H9.97009ZM18.1461 8.65655L15.8901 2.43255L13.6501 8.65655H18.1461ZM23.9756 14.5605V0.160546H25.5596V14.5605H23.9756ZM28.9235 14.5605V0.160546H30.5235L38.2035 11.7925V0.160546H39.7875V14.5605H38.1875L30.5075 2.92855V14.5605H28.9235ZM42.9235 14.5605V0.160546H47.9315C49.5475 0.160546 50.8595 1.28055 52.0275 2.41655C53.1795 3.55255 54.3315 4.81655 54.3315 6.43255V8.28855C54.3315 9.90455 53.1795 11.1685 52.0275 12.3045C50.8595 13.4405 49.5475 14.5605 47.9315 14.5605H42.9235ZM44.5075 13.1205H47.9315C49.1635 13.1205 50.1555 12.2565 51.0195 11.3765C51.8995 10.4965 52.7475 9.52055 52.7475 8.28855V6.43255C52.7475 5.20055 51.8995 4.22455 51.0195 3.34455C50.1555 2.46455 49.1635 1.60055 47.9315 1.60055H44.5075V13.1205ZM57.0328 14.5605V0.160546H61.6088C62.7128 0.160546 63.6888 0.752546 64.5688 1.40855C65.3688 2.00055 66.2328 2.65655 66.2328 3.63255V4.41655C66.2328 5.39255 65.3688 6.04855 64.5688 6.64055C64.0248 7.05655 63.4488 7.42455 62.8248 7.66455L66.6808 14.5605H64.8088L61.2088 7.88855H58.6168V14.5605H57.0328ZM58.6168 1.60055V6.44855H61.6088C62.3128 6.44855 62.9528 6.11255 63.5448 5.71255C64.0568 5.37655 64.6488 4.99255 64.6488 4.41655V3.63255C64.6488 3.05655 64.0568 2.67255 63.5448 2.33655C62.9528 1.93655 62.3128 1.60055 61.6088 1.60055H58.6168ZM75.1453 1.44055H74.0893C72.8573 1.44055 71.9133 2.33655 71.0653 3.23255C70.2013 4.14455 69.3533 5.16855 69.3533 6.41655V8.30455C69.3533 9.55255 70.2013 10.5765 71.0653 11.4885C71.9133 12.3845 72.8573 13.2805 74.0893 13.2805H75.1453C76.3773 13.2805 77.3213 12.3845 78.1693 11.4885C79.0333 10.5765 79.8813 9.55255 79.8813 8.30455V6.41655C79.8813 5.16855 79.0333 4.14455 78.1693 3.23255C77.3213 2.33655 76.3773 1.44055 75.1453 1.44055ZM75.1453 0.000546455C76.7613 0.000546455 78.0573 1.15255 79.1933 2.30455C80.3453 3.47255 81.4653 4.78455 81.4653 6.41655V8.30455C81.4653 9.93655 80.3453 11.2485 79.1933 12.4165C78.0573 13.5685 76.7613 14.7205 75.1453 14.7205H74.0893C72.4733 14.7205 71.1773 13.5685 70.0413 12.4165C68.8893 11.2485 67.7693 9.93655 67.7693 8.30455V6.41655C67.7693 4.78455 68.8893 3.47255 70.0413 2.30455C71.1773 1.15255 72.4733 0.000546455 74.0893 0.000546455H75.1453ZM84.0328 14.5605V0.160546H88.6088C89.7288 0.160546 90.7048 0.800547 91.5688 1.50455C92.3688 2.16055 93.2328 2.88055 93.2328 3.90455V4.76855C93.2328 5.79255 92.3688 6.51255 91.5688 7.16855C90.7048 7.87255 89.7288 8.51255 88.6088 8.51255H85.6168V14.5605H84.0328ZM85.6168 1.60055V7.07255H88.6088C89.3288 7.07255 89.9688 6.67255 90.5448 6.24055C91.0728 5.84055 91.6488 5.40855 91.6488 4.76855V3.90455C91.6488 3.26455 91.0728 2.83255 90.5448 2.43255C89.9688 2.00055 89.3288 1.60055 88.6088 1.60055H85.6168Z" fill="#5B5A7C"/>
</svg>
