<svg width="85" height="17" viewBox="0 0 85 17" fill="none" xmlns="http://www.w3.org/2000/svg">
<path d="M0.666 16V0.699999H5.868C6.786 0.699999 7.585 1.244 8.299 1.839C8.962 2.383 9.676 2.995 9.676 3.845V4.457C9.676 5.137 8.928 5.63 8.299 6.038C8.01 6.225 7.721 6.395 7.415 6.548C7.908 6.854 8.367 7.262 8.792 7.67C9.608 8.469 10.441 9.353 10.441 10.492V11.58C10.441 12.719 9.608 13.62 8.792 14.419C7.959 15.218 7.024 16 5.868 16H0.666ZM2.349 2.23V6.072H5.868C6.378 6.072 6.82 5.8 7.228 5.494C7.585 5.222 7.993 4.916 7.993 4.457V3.845C7.993 3.386 7.585 3.08 7.228 2.808C6.82 2.502 6.378 2.23 5.868 2.23H2.349ZM2.349 7.602V14.47H5.868C6.599 14.47 7.194 13.96 7.721 13.433C8.248 12.906 8.758 12.311 8.758 11.58V10.492C8.758 9.761 8.248 9.166 7.721 8.639C7.194 8.112 6.599 7.602 5.868 7.602H2.349ZM13.167 16V0.699999H14.85V14.47H21.735V16H13.167ZM34.9704 0.699999V11.478C34.9704 12.702 34.0354 13.654 33.1344 14.487C32.1994 15.354 31.1624 16.17 29.8874 16.17H29.1224C27.8474 16.17 26.8104 15.354 25.8754 14.487C24.9744 13.654 24.0394 12.702 24.0394 11.478V0.699999H25.7224V11.478C25.7224 12.294 26.3344 12.94 26.9464 13.501C27.5754 14.079 28.2724 14.64 29.1224 14.64H29.8874C30.7374 14.64 31.4344 14.079 32.0634 13.501C32.6754 12.94 33.2874 12.294 33.2874 11.478V0.699999H34.9704ZM38.2519 16V0.699999H46.8199V2.23H39.9349V6.514H45.9869V8.044H39.9349V14.47H46.8199V16H38.2519ZM48.8492 13.127L50.3112 12.362C50.3962 12.94 50.9402 13.365 51.4332 13.756C52.0282 14.215 52.7082 14.64 53.4562 14.64H54.1532C54.9182 14.64 55.5982 14.266 56.2102 13.79C56.7542 13.365 57.3152 12.872 57.3152 12.192V11.342C57.3152 10.458 56.5162 9.863 55.6662 9.54L51.9092 8.537C50.4132 7.976 49.1552 6.803 49.1552 5.256V4.372C49.1552 3.352 49.9032 2.553 50.6682 1.873C51.4842 1.159 52.4192 0.53 53.5072 0.53H54.1022C55.1732 0.53 56.0912 1.21 56.8902 1.924C57.3662 2.349 57.8592 2.808 58.1652 3.335L56.6012 3.743C56.4142 3.42 56.1082 3.148 55.8192 2.893C55.3262 2.468 54.7652 2.06 54.1022 2.06H53.5072C52.8442 2.06 52.2492 2.417 51.7562 2.859C51.2802 3.267 50.8382 3.76 50.8382 4.372V5.256C50.8382 6.123 51.6372 6.684 52.4872 7.007L56.2442 8.01C57.7402 8.571 58.9982 9.778 58.9982 11.342V12.192C58.9982 13.28 58.1652 14.096 57.3152 14.793C56.3972 15.541 55.3432 16.17 54.1532 16.17H53.4562C52.2832 16.17 51.2632 15.49 50.3622 14.742C49.7842 14.266 49.1722 13.756 48.8492 13.127ZM61.6933 0.699999H63.3763V7.279C64.2603 6.429 65.1273 5.579 66.0113 4.729L70.1763 0.699999H72.5053L66.8443 6.174L72.5053 16H70.5163L65.5693 7.415L63.3763 9.54V16H61.6933V0.699999ZM72.7805 0.699999H74.7355L78.8835 7.5L83.0145 0.699999H84.9015L79.6825 9.285V16H77.9995V9.285L72.7805 0.699999Z" fill="#5C5A7C"/>
</svg>
